<?xml version="1.0" encoding="UTF-8"?>
<svg id="Layer_2" data-name="Layer 2" xmlns="http://www.w3.org/2000/svg" viewBox="0 0 560.24 120.99">
  <defs>
    <style>
      .cls-1 {
        fill: none;
      }

      .cls-1, .cls-2, .cls-3, .cls-4 {
        stroke-width: 0px;
      }

      .cls-2 {
        fill: #54555a;
      }

      .cls-3 {
        fill: #922e42;
      }

      .cls-4 {
        fill: #335a4e;
      }
    </style>
  </defs>
  <g id="Layer_1-2" data-name="Layer 1">
    <g>
      <g>
        <path class="cls-2" d="M113.68,83.79c-3.72,6.5-8.59,12.64-14.54,18.08-21.86,19.97-51.69,24.41-73.23,12.79h0c-2.67-1.44-5.22-3.13-7.6-5.06h0c-1.86-1.51-3.62-3.16-5.27-4.97C5.31,96.18,1.09,85.61.19,74.42c-.31-3.78-.23-7.63.21-11.5,1.8-15.58,9.62-31.39,23.02-43.68-4.58,6.9-12.56,20.55-15.47,35.71-.54,2.79-.9,5.63-1.04,8.49-.69,13.9,3.92,28.25,19.87,39.29,3.2,2.22,6.38,4.02,9.54,5.46,2.59,1.18,5.16,2.11,7.7,2.83,10.52,2.96,20.57,2.17,29.61-.52h0c12.74.74,20.56-8.93,21.61-10.06.2-.21.52-.6.93-1.15,10.69-7.47,17.31-15.27,17.5-15.5Z"/>
        <path class="cls-3" d="M55.48,102.94c-6.77,2.39-13.3,4.13-19.16,5.26-3.16-1.44-6.34-3.24-9.54-5.46-15.95-11.05-20.56-25.39-19.87-39.29,4.24-5.23,10.04-10.89,16.86-16.38,2.14,13.65,7.75,30.4,21.14,45.77,3.69,4.23,7.21,7.54,10.57,10.1Z"/>
        <path class="cls-1" d="M121.63,40.29c-2.75,11.79-8.52,21.94-16.05,30.56.08-2.83-.06-5.82-.49-8.95-1.61-11.63-4.46-23.26-10.34-34.37,1.72-2.83,2.37-5.98,1.61-8.96,7.69.81,14.77,3.47,20.74,8.54-1.95-3.85-4.43-7.46-7.44-10.75-5.21-1.13-10.34-1.71-15.36-1.84-2.65-3.2-7.25-4.97-12.36-4.83-3.13-3.32-6.67-6.55-10.68-9.69-2.48-.02-4.98.11-7.49.39,4.89,3.12,9.18,6.51,12.92,10.1-.35.1-.71.21-1.06.32-4.76,1.57-8.53,4.53-10.72,7.98-14.59,4.56-27.54,12.16-38.08,19.95-.48-14.1,2.65-24.36,2.71-24.57-2.05,1.53-4.05,3.17-5.99,4.94,0,0-1.81,9.21-.48,22.49-6.01,4.72-11.11,9.37-15.12,13.34-.54,2.79-.9,5.63-1.04,8.49,4.24-5.23,10.04-10.89,16.86-16.38,2.14,13.65,7.75,30.4,21.14,45.77,3.69,4.23,7.21,7.54,10.57,10.1-6.77,2.39-13.3,4.13-19.16,5.26,2.59,1.18,5.16,2.11,7.7,2.83,4.66-1.27,9.98-2.96,15.67-5.2,5.13,3.1,9.79,4.44,13.94,4.68h0c12.74.74,20.56-8.93,21.61-10.06.2-.21.52-.6.93-1.15,2.3-3.08,7.38-11.29,8.95-22.95,6.47-6.62,12.46-14.37,17.53-23.42.13-4.28-.21-8.52-1.03-12.62ZM86.86,102.14c-4.06,3.28-13.64,3.8-17.17,2.88-.88-.23-2.45-.61-4.56-1.48,11.25-4.95,23.5-12.04,34.72-22.14-2.74,12.98-9.43,17.87-12.99,20.74ZM100.76,75.4c-.02.2-.04.39-.06.59-11.64,11.33-26.3,19.61-40.34,25.13-6.53-3.96-15.49-11.98-24.63-28.69-5.23-9.57-7.64-19.33-8.52-28.06,10.5-7.97,23-15.35,35.7-20.21-.19,1.53-.06,3.07.43,4.55,2.28,6.89,11.47,10.04,20.53,7.05,3.22-1.06,5.98-2.76,8.11-4.81,8.62,16.73,9.8,33.86,8.77,44.45Z"/>
        <path class="cls-3" d="M73.63,110.5c-9.04,2.69-19.09,3.48-29.61.52,4.66-1.27,9.98-2.96,15.67-5.2,5.13,3.1,9.79,4.44,13.94,4.68Z"/>
        <path class="cls-3" d="M99.85,81.41c-2.74,12.98-9.43,17.87-12.99,20.74-4.06,3.28-13.64,3.8-17.17,2.88-.88-.23-2.45-.61-4.56-1.48,11.25-4.95,23.5-12.04,34.72-22.14Z"/>
        <path class="cls-3" d="M100.76,75.4c-.02.2-.04.39-.06.59-11.64,11.33-26.3,19.61-40.34,25.13-6.53-3.96-15.49-11.98-24.63-28.69-5.23-9.57-7.64-19.33-8.52-28.06,10.5-7.97,23-15.35,35.7-20.21-.19,1.53-.06,3.07.43,4.55,2.28,6.89,11.47,10.04,20.53,7.05,3.22-1.06,5.98-2.76,8.11-4.81,8.62,16.73,9.8,33.86,8.77,44.45Z"/>
        <path class="cls-3" d="M23.07,41.61c-6.01,4.72-11.11,9.37-15.12,13.34,2.91-15.16,10.89-28.81,15.47-35.71.04-.04.08-.08.13-.12,0,0-1.81,9.21-.48,22.49Z"/>
        <path class="cls-3" d="M76.69,10.49c-.35.1-.71.21-1.06.32-4.76,1.57-8.53,4.53-10.72,7.98-14.59,4.56-27.54,12.16-38.08,19.95-.48-14.1,2.65-24.36,2.71-24.57C40.1,6.32,52.03,1.71,63.77.39c4.89,3.12,9.18,6.51,12.92,10.1Z"/>
        <path class="cls-3" d="M109.65,16.36c-5.21-1.13-10.34-1.71-15.36-1.84-2.65-3.2-7.25-4.97-12.36-4.83-3.13-3.32-6.67-6.55-10.68-9.69,14.67.12,28.52,5.54,38.4,16.36Z"/>
        <path class="cls-3" d="M121.63,40.29h0c-2.75,11.79-8.52,21.94-16.05,30.56.08-2.83-.06-5.82-.49-8.95-1.61-11.63-4.46-23.26-10.34-34.37,1.72-2.83,2.37-5.98,1.61-8.96,7.69.81,14.77,3.47,20.74,8.54,2.12,4.16,3.62,8.59,4.54,13.18Z"/>
        <path class="cls-3" d="M122.66,52.91c-.3,10.38-3.34,21.05-8.97,30.87,0,0,0,0,0,0-.2.23-6.82,8.03-17.5,15.5,2.3-3.08,7.38-11.29,8.95-22.95,6.47-6.62,12.46-14.37,17.53-23.42Z"/>
      </g>
      <g>
        <g>
          <polygon class="cls-4" points="149.27 71.95 166.39 71.95 176.54 21.17 159.42 21.17 149.27 71.95"/>
          <polygon class="cls-4" points="227.82 21.17 180.97 21.17 178.28 34.45 193.15 34.45 185.68 71.95 202.8 71.95 210.27 34.45 225.14 34.45 227.82 21.17"/>
          <polygon class="cls-4" points="242.8 52.36 264.31 52.36 266.77 40.03 245.27 40.03 246.46 34.08 270.91 34.08 273.52 21.17 232.25 21.17 222.09 71.95 264.31 71.95 266.92 59.04 241.46 59.04 242.8 52.36"/>
          <path class="cls-4" d="M295.86,33.54c1.11-.31,2.49-.47,4.13-.47,2.47,0,4.9.32,7.29.94,2.39.63,4.61,1.57,6.64,2.83l6.17-12.48c-2.37-1.4-5.19-2.48-8.45-3.23-3.26-.75-6.78-1.12-10.55-1.12-5.32,0-9.9.79-13.74,2.36-3.84,1.57-6.79,3.78-8.85,6.64-2.06,2.85-3.08,6.21-3.08,10.08,0,2.22.44,4.11,1.31,5.66.87,1.55,2.02,2.83,3.45,3.84,1.43,1.02,3.01,1.85,4.75,2.5s3.47,1.19,5.19,1.6c1.72.41,3.29.81,4.71,1.2,1.43.39,2.58.82,3.45,1.31.87.48,1.31,1.11,1.31,1.89,0,.58-.25,1.1-.76,1.56-.51.46-1.26.81-2.25,1.05-.99.24-2.24.36-3.74.36-1.89,0-3.78-.17-5.69-.51-1.91-.34-3.82-.86-5.73-1.56-1.91-.7-3.81-1.58-5.69-2.65l-6.6,12.62c1.64.97,3.59,1.85,5.84,2.65,2.25.8,4.75,1.41,7.51,1.85,2.76.44,5.63.65,8.63.65,5.27,0,9.83-.8,13.67-2.39,3.84-1.6,6.81-3.81,8.88-6.64,2.08-2.83,3.12-6.13,3.12-9.9,0-2.22-.43-4.1-1.31-5.62-.87-1.52-2.03-2.78-3.48-3.77-1.45-.99-3.04-1.79-4.75-2.39-1.72-.6-3.43-1.11-5.15-1.52-1.72-.41-3.3-.8-4.75-1.16-1.45-.36-2.61-.8-3.48-1.31-.87-.51-1.3-1.15-1.3-1.92,0-.58.28-1.14.83-1.67.56-.53,1.39-.95,2.5-1.27Z"/>
          <path class="cls-3" d="M354.94,57.88c-1.91.92-3.86,1.38-5.84,1.38-2.08,0-3.91-.41-5.48-1.23-1.57-.82-2.79-1.98-3.66-3.48-.87-1.5-1.31-3.24-1.31-5.22,0-2.27.34-4.35,1.02-6.24.68-1.89,1.62-3.52,2.83-4.9,1.21-1.38,2.65-2.44,4.32-3.19,1.67-.75,3.52-1.12,5.55-1.12,2.32,0,4.33.52,6.02,1.56,1.69,1.04,3.07,2.5,4.13,4.39l12.33-9.65c-1.84-3.29-4.64-5.8-8.41-7.54s-8.1-2.61-12.98-2.61-8.99.74-12.91,2.21c-3.92,1.48-7.3,3.57-10.15,6.27-2.85,2.71-5.07,5.92-6.64,9.65-1.57,3.72-2.36,7.81-2.36,12.26s1.08,8.45,3.23,11.86c2.15,3.41,5.19,6.07,9.1,7.98,3.92,1.91,8.49,2.87,13.71,2.87,4.69,0,8.93-.74,12.73-2.21,3.8-1.47,7.24-4.1,10.34-7.87l-10.08-9.65c-1.74,2.08-3.57,3.58-5.48,4.5Z"/>
          <polygon class="cls-3" points="415.61 21.17 412.01 39.16 396.2 39.16 399.8 21.17 382.68 21.17 372.53 71.95 389.64 71.95 393.39 53.23 409.2 53.23 405.46 71.95 422.57 71.95 432.73 21.17 415.61 21.17"/>
          <path class="cls-3" d="M457.68,21.17l-32.35,50.77h18.06l5.08-8.85h19.34l1.69,8.85h17.05l-12.04-50.77h-16.83ZM455.54,50.77l7.44-12.96,2.48,12.96h-9.91Z"/>
          <polygon class="cls-3" points="545.66 21.17 524.42 48.14 513.39 21.17 499.46 21.17 489.31 71.95 504.9 71.95 509.45 49.13 517.3 67.38 524.85 67.38 539.14 48.78 534.64 71.95 550.23 71.95 560.24 21.17 545.66 21.17"/>
        </g>
        <g>
          <polygon class="cls-2" points="149.27 97.51 152.07 97.51 154.48 85.47 151.68 85.47 149.27 97.51"/>
          <path class="cls-2" d="M163.97,88.6c-.55-.33-1.22-.49-2.01-.49-.73,0-1.43.16-2.09.47-.35.17-.66.38-.95.65l.2-.98h-2.55l-1.84,9.25h2.68l.93-4.7c.17-.8.48-1.4.94-1.79.45-.39,1.02-.59,1.69-.59s1.1.18,1.35.55c.25.37.3.89.16,1.57l-1,4.95h2.68l1.03-5.13c.18-.93.16-1.71-.07-2.34-.23-.63-.62-1.11-1.17-1.44Z"/>
          <path class="cls-2" d="M170.19,90.41c.28-.18.74-.27,1.37-.27.44,0,.89.05,1.37.15.48.1.93.28,1.37.56l.96-1.96c-.42-.24-.94-.43-1.55-.57-.61-.14-1.23-.21-1.87-.21-.89,0-1.69.13-2.4.38-.7.25-1.26.62-1.65,1.1-.4.48-.59,1.07-.59,1.77,0,.52.12.93.35,1.25.23.32.54.56.91.72.37.17.77.3,1.19.39.42.09.81.17,1.18.24.37.07.67.16.91.27.24.11.36.27.36.49,0,.27-.14.49-.43.65-.29.16-.75.24-1.38.24-.58,0-1.17-.08-1.75-.24-.58-.16-1.07-.37-1.47-.64l-1.03,1.94c.39.27.94.5,1.66.69.72.18,1.48.27,2.3.27.89,0,1.69-.12,2.39-.36.7-.24,1.25-.6,1.66-1.09.41-.49.61-1.08.61-1.78,0-.52-.12-.93-.35-1.23-.24-.3-.54-.54-.9-.71-.37-.17-.76-.29-1.19-.38-.42-.09-.82-.17-1.19-.24-.37-.08-.67-.17-.9-.29-.24-.12-.35-.29-.35-.51,0-.25.14-.47.42-.64Z"/>
          <path class="cls-2" d="M181,86.21h-2.68l-.45,2.25h-1.43l-.41,2.06h1.43l-.74,3.73c-.14.7-.11,1.3.09,1.81.2.51.54.9,1.01,1.17.47.27,1.04.4,1.7.4.4,0,.8-.04,1.2-.12.4-.08.77-.22,1.1-.43l-.4-1.91c-.16.1-.34.18-.52.24-.19.06-.38.09-.56.09-.4,0-.68-.11-.83-.34-.15-.23-.19-.54-.12-.93l.74-3.71h2.3l.41-2.06h-2.31l.45-2.25Z"/>
          <polygon class="cls-2" points="183.24 97.51 185.9 97.51 187.74 88.25 185.08 88.25 183.24 97.51"/>
          <path class="cls-2" d="M187.07,83.97c-.53,0-.95.15-1.28.46-.33.3-.49.69-.49,1.14,0,.39.14.72.43.99.29.27.66.4,1.14.4.54,0,.97-.15,1.3-.46.33-.3.49-.7.49-1.19,0-.38-.15-.7-.44-.95s-.67-.39-1.14-.39Z"/>
          <path class="cls-2" d="M193.64,86.21h-2.68l-.45,2.25h-1.43l-.41,2.06h1.43l-.74,3.73c-.14.7-.11,1.3.09,1.81.2.51.54.9,1.01,1.17s1.04.4,1.7.4c.4,0,.8-.04,1.2-.12.4-.08.77-.22,1.1-.43l-.4-1.91c-.16.1-.34.18-.52.24-.19.06-.38.09-.56.09-.4,0-.68-.11-.83-.34-.15-.23-.19-.54-.12-.93l.74-3.71h2.3l.41-2.06h-2.31l.45-2.25Z"/>
          <path class="cls-2" d="M203.41,92.95c-.15.8-.45,1.4-.9,1.79-.45.39-1.01.58-1.68.58-.63,0-1.07-.18-1.32-.55-.25-.37-.3-.89-.16-1.56l.98-4.95h-2.68l-1.01,5.12c-.18.93-.16,1.71.07,2.34.23.63.62,1.11,1.17,1.44.55.33,1.2.49,1.96.49s1.43-.16,2.08-.47c.34-.16.65-.38.93-.64l-.19.98h2.55l1.84-9.25h-2.68l-.95,4.69Z"/>
          <path class="cls-2" d="M212.94,86.21h-2.68l-.45,2.25h-1.43l-.41,2.06h1.43l-.74,3.73c-.14.7-.11,1.3.09,1.81.2.51.54.9,1.01,1.17.47.27,1.04.4,1.7.4.4,0,.8-.04,1.2-.12.4-.08.77-.22,1.1-.43l-.4-1.91c-.16.1-.34.18-.52.24-.19.06-.38.09-.56.09-.4,0-.68-.11-.83-.34-.15-.23-.19-.54-.12-.93l.74-3.71h2.3l.41-2.06h-2.31l.45-2.25Z"/>
          <path class="cls-2" d="M223.11,88.63c-.69-.34-1.52-.52-2.47-.52-1.08,0-2.04.24-2.88.71-.84.47-1.5,1.11-1.99,1.92-.48.81-.72,1.73-.72,2.76,0,.84.19,1.57.58,2.18s.93,1.1,1.63,1.44c.7.34,1.52.52,2.46.52,1.09,0,2.05-.23,2.89-.7.84-.47,1.5-1.11,1.98-1.93.48-.81.72-1.73.72-2.75,0-.85-.19-1.58-.58-2.19-.38-.61-.92-1.09-1.62-1.44ZM222.24,93.98c-.23.46-.55.82-.95,1.07-.41.26-.87.39-1.4.39-.68,0-1.2-.19-1.57-.56-.37-.37-.55-.87-.55-1.51s.12-1.14.35-1.6c.23-.46.56-.82.96-1.08.41-.26.87-.39,1.4-.39.66,0,1.18.19,1.55.57s.55.88.55,1.5-.11,1.14-.34,1.6Z"/>
          <polygon class="cls-2" points="242.71 85.47 232.22 85.47 231.76 87.74 235.61 87.74 233.66 97.51 236.45 97.51 238.41 87.74 242.25 87.74 242.71 85.47"/>
          <path class="cls-2" d="M248.66,88.62c-.65-.34-1.43-.51-2.34-.51-1.07,0-2.01.24-2.83.71-.82.47-1.46,1.11-1.93,1.92-.46.81-.7,1.73-.7,2.76,0,.84.19,1.57.58,2.18.39.62.94,1.1,1.64,1.44.71.34,1.54.52,2.5.52.7,0,1.38-.1,2.06-.3.67-.2,1.28-.51,1.81-.94l-1.12-1.77c-.31.28-.68.49-1.12.64-.44.15-.89.22-1.36.22-.8,0-1.4-.17-1.8-.52-.35-.31-.54-.77-.58-1.37h7.07c.05-.22.08-.45.11-.69.03-.24.04-.48.04-.72,0-.84-.18-1.56-.54-2.16-.36-.6-.87-1.07-1.52-1.41ZM244.71,90.55c.41-.28.9-.42,1.49-.42.47,0,.87.1,1.2.28.33.19.57.46.72.81.1.23.12.51.12.82h-4.55c.03-.11.05-.22.1-.33.21-.49.51-.88.92-1.16Z"/>
          <path class="cls-2" d="M255.71,90.72c.41-.26.88-.39,1.41-.39.48,0,.9.1,1.25.3.35.2.62.52.82.95l2.27-1.14c-.34-.75-.88-1.32-1.6-1.73-.72-.41-1.58-.61-2.56-.61-1.1,0-2.08.24-2.92.71-.85.47-1.51,1.11-1.99,1.92-.48.81-.72,1.73-.72,2.76,0,.84.19,1.57.58,2.18.39.62.94,1.1,1.64,1.44.7.34,1.53.52,2.49.52s1.81-.19,2.59-.58c.77-.39,1.38-.93,1.81-1.63l-1.98-1.24c-.26.42-.59.74-.98.94-.39.2-.82.3-1.29.3-.69,0-1.22-.19-1.59-.56-.37-.37-.56-.87-.56-1.5,0-.6.12-1.12.36-1.57.24-.45.57-.81.98-1.07Z"/>
          <path class="cls-2" d="M270.88,88.6c-.55-.33-1.22-.49-2.01-.49-.73,0-1.43.16-2.09.47-.35.17-.66.38-.95.65l.2-.98h-2.55l-1.84,9.25h2.68l.93-4.7c.17-.8.48-1.4.94-1.79.45-.39,1.02-.59,1.69-.59s1.1.18,1.35.55c.25.37.3.89.16,1.57l-1,4.95h2.68l1.03-5.13c.18-.93.16-1.71-.07-2.34-.23-.63-.62-1.11-1.17-1.44Z"/>
          <path class="cls-2" d="M281.8,88.63c-.69-.34-1.52-.52-2.47-.52-1.08,0-2.04.24-2.88.71-.84.47-1.5,1.11-1.99,1.92-.48.81-.72,1.73-.72,2.76,0,.84.19,1.57.58,2.18s.93,1.1,1.63,1.44c.7.34,1.52.52,2.46.52,1.09,0,2.05-.23,2.89-.7.84-.47,1.5-1.11,1.98-1.93.48-.81.72-1.73.72-2.75,0-.85-.19-1.58-.58-2.19-.38-.61-.92-1.09-1.62-1.44ZM280.93,93.98c-.23.46-.55.82-.95,1.07-.41.26-.87.39-1.4.39-.68,0-1.2-.19-1.57-.56-.37-.37-.55-.87-.55-1.51s.12-1.14.35-1.6c.23-.46.56-.82.96-1.08.41-.26.87-.39,1.4-.39.66,0,1.18.19,1.55.57.37.38.55.88.55,1.5s-.11,1.14-.34,1.6Z"/>
          <polygon class="cls-2" points="284.81 97.51 287.5 97.51 290.04 84.74 287.36 84.74 284.81 97.51"/>
          <path class="cls-2" d="M298.22,88.63c-.69-.34-1.52-.52-2.47-.52-1.08,0-2.04.24-2.88.71-.84.47-1.5,1.11-1.99,1.92-.48.81-.72,1.73-.72,2.76,0,.84.19,1.57.58,2.18s.93,1.1,1.63,1.44c.7.34,1.52.52,2.46.52,1.09,0,2.05-.23,2.89-.7.84-.47,1.5-1.11,1.98-1.93.48-.81.72-1.73.72-2.75,0-.85-.19-1.58-.58-2.19-.38-.61-.92-1.09-1.62-1.44ZM297.35,93.98c-.23.46-.55.82-.95,1.07-.41.26-.87.39-1.4.39-.68,0-1.2-.19-1.57-.56-.37-.37-.55-.87-.55-1.51s.12-1.14.35-1.6c.23-.46.56-.82.96-1.08.41-.26.87-.39,1.4-.39.67,0,1.18.19,1.55.57s.55.88.55,1.5-.11,1.14-.34,1.6Z"/>
          <polygon class="cls-2" points="300.34 84.59 297.39 84.59 294.81 87.07 296.97 87.07 300.34 84.59"/>
          <path class="cls-2" d="M309.78,89.75s-.01-.03-.02-.04c-.3-.56-.73-.97-1.28-1.22-.55-.25-1.16-.38-1.84-.38-.75,0-1.43.13-2.06.39-.62.26-1.17.62-1.63,1.08-.46.46-.83,1-1.08,1.61-.26.61-.39,1.27-.39,1.98,0,.81.18,1.51.55,2.09.37.58.86,1.02,1.48,1.33.62.31,1.31.46,2.06.46.89,0,1.67-.21,2.31-.64.18-.12.36-.26.52-.41l-.08.41c-.16.79-.47,1.39-.94,1.79-.46.4-1.16.6-2.09.6-.64,0-1.25-.09-1.83-.28-.58-.18-1.05-.42-1.42-.72l-1.27,1.94c.54.4,1.18.7,1.93.91.75.21,1.57.31,2.47.31,1.6,0,2.9-.39,3.9-1.18.99-.79,1.67-2.07,2.02-3.84l1.53-7.7h-2.56l-.28,1.5ZM307.69,94.51c-.4.23-.87.34-1.39.34-.65,0-1.17-.16-1.55-.49-.38-.33-.57-.77-.57-1.33,0-.53.12-.99.35-1.4.24-.41.56-.73.96-.95.41-.23.87-.34,1.4-.34.65,0,1.16.16,1.53.49.37.33.55.77.55,1.33,0,.53-.11.99-.34,1.4-.23.41-.54.73-.95.95Z"/>
          <path class="cls-2" d="M318.26,84.36c-.29-.26-.67-.39-1.14-.39-.53,0-.95.15-1.28.46-.33.3-.49.69-.49,1.14,0,.39.14.72.43.99.29.27.66.4,1.14.4.54,0,.97-.15,1.3-.46.33-.3.49-.7.49-1.19,0-.38-.15-.7-.44-.95Z"/>
          <polygon class="cls-2" points="313.28 97.51 315.94 97.51 317.79 88.25 315.12 88.25 313.28 97.51"/>
          <path class="cls-2" d="M322.67,90.72c.41-.26.88-.39,1.41-.39.48,0,.9.1,1.25.3.35.2.62.52.82.95l2.27-1.14c-.34-.75-.88-1.32-1.6-1.73-.72-.41-1.58-.61-2.56-.61-1.1,0-2.08.24-2.92.71-.85.47-1.51,1.11-2,1.92-.48.81-.72,1.73-.72,2.76,0,.84.19,1.57.58,2.18.39.62.94,1.1,1.64,1.44.7.34,1.53.52,2.49.52s1.81-.19,2.59-.58c.77-.39,1.38-.93,1.81-1.63l-1.98-1.24c-.26.42-.59.74-.98.94-.39.2-.82.3-1.29.3-.69,0-1.22-.19-1.59-.56-.37-.37-.56-.87-.56-1.5,0-.6.12-1.12.36-1.57.24-.45.57-.81.98-1.07Z"/>
          <path class="cls-2" d="M336.71,88.63c-.69-.34-1.52-.52-2.47-.52-1.08,0-2.04.24-2.88.71-.84.47-1.51,1.11-1.99,1.92-.48.81-.72,1.73-.72,2.76,0,.84.19,1.57.58,2.18.38.62.93,1.1,1.63,1.44.7.34,1.52.52,2.46.52,1.09,0,2.05-.23,2.89-.7.84-.47,1.5-1.11,1.98-1.93.48-.81.72-1.73.72-2.75,0-.85-.19-1.58-.58-2.19-.38-.61-.92-1.09-1.62-1.44ZM335.84,93.98c-.23.46-.55.82-.95,1.07-.41.26-.87.39-1.4.39-.68,0-1.2-.19-1.57-.56s-.55-.87-.55-1.51.12-1.14.35-1.6c.24-.46.56-.82.96-1.08.41-.26.87-.39,1.4-.39.67,0,1.18.19,1.55.57s.55.88.55,1.5-.11,1.14-.34,1.6Z"/>
          <path class="cls-2" d="M349.73,87.68c.38-.13.85-.19,1.38-.19.6,0,1.18.08,1.74.23.56.15,1.07.39,1.53.7l1.05-2.13c-.52-.33-1.14-.59-1.86-.76-.72-.18-1.49-.27-2.3-.27-1.11,0-2.08.17-2.91.51-.83.34-1.46.81-1.92,1.42s-.68,1.32-.68,2.15c0,.55.11,1.01.33,1.38.22.37.5.67.85.9.35.24.74.43,1.17.58s.86.29,1.28.4c.42.11.81.23,1.16.35.35.12.63.27.85.44.22.17.33.4.33.67,0,.3-.1.55-.3.76-.2.21-.49.37-.86.48-.37.11-.82.17-1.33.17-.47,0-.94-.05-1.41-.15-.47-.1-.92-.24-1.35-.43-.43-.19-.83-.42-1.21-.68l-1.14,2.15c.34.24.76.46,1.26.67.5.21,1.06.37,1.67.49.61.12,1.25.18,1.9.18,1.12,0,2.1-.17,2.93-.51.83-.34,1.48-.81,1.93-1.43s.69-1.33.69-2.16c0-.53-.11-.97-.33-1.32-.22-.35-.5-.64-.86-.87-.35-.23-.75-.42-1.17-.57-.42-.15-.85-.28-1.27-.4-.42-.11-.81-.23-1.17-.35-.36-.12-.64-.27-.85-.45-.21-.18-.32-.41-.32-.7s.1-.54.3-.77c.2-.22.49-.4.88-.52Z"/>
          <path class="cls-2" d="M364.05,88.25l-.95,4.69c-.15.8-.45,1.4-.9,1.79s-1.01.58-1.68.58-1.07-.18-1.32-.55c-.25-.37-.3-.89-.16-1.56l.98-4.95h-2.68l-1.01,5.12c-.18.93-.16,1.71.07,2.34.23.63.62,1.11,1.17,1.44s1.2.49,1.96.49,1.43-.16,2.08-.47c.34-.16.65-.38.93-.64l-.19.98h2.55l1.84-9.25h-2.68Z"/>
          <path class="cls-2" d="M376.42,88.6c-.61-.33-1.27-.49-2-.49-.91,0-1.69.22-2.36.67-.17.11-.33.24-.48.38l.19-.91h-2.55l-2.51,12.59h2.68l.92-4.58c.26.41.61.73,1.04.95.56.29,1.21.43,1.95.43s1.39-.13,2.01-.4c.62-.27,1.16-.65,1.63-1.13.46-.48.83-1.05,1.09-1.71.26-.66.4-1.37.4-2.14,0-.88-.18-1.63-.55-2.24-.37-.61-.85-1.08-1.46-1.41ZM375.36,93.97c-.24.45-.55.81-.95,1.07-.4.26-.87.39-1.41.39-.66,0-1.18-.18-1.55-.55s-.55-.87-.55-1.5.11-1.14.34-1.59c.23-.45.55-.81.96-1.07.41-.26.88-.39,1.39-.39.68,0,1.2.18,1.57.55s.55.87.55,1.5-.12,1.14-.35,1.59Z"/>
          <path class="cls-2" d="M387.23,88.62c-.65-.34-1.43-.51-2.34-.51-1.07,0-2.01.24-2.83.71-.82.47-1.46,1.11-1.93,1.92-.46.81-.7,1.73-.7,2.76,0,.84.19,1.57.59,2.18.39.62.94,1.1,1.64,1.44.7.34,1.54.52,2.5.52.7,0,1.38-.1,2.06-.3.67-.2,1.27-.51,1.81-.94l-1.12-1.77c-.31.28-.68.49-1.12.64-.44.15-.89.22-1.36.22-.8,0-1.4-.17-1.8-.52-.35-.31-.54-.77-.58-1.37h7.07c.05-.22.08-.45.11-.69.03-.24.04-.48.04-.72,0-.84-.18-1.56-.54-2.16-.36-.6-.87-1.07-1.52-1.41ZM383.29,90.55c.41-.28.9-.42,1.49-.42.47,0,.87.1,1.2.28s.57.46.72.81c.1.23.12.51.12.82h-4.55c.03-.11.05-.22.1-.33.21-.49.51-.88.92-1.16Z"/>
          <path class="cls-2" d="M395.28,88.56c-.4.18-.76.46-1.07.8l.23-1.11h-2.55l-1.84,9.25h2.68l.89-4.47c.17-.87.51-1.5,1.01-1.89.5-.39,1.14-.59,1.93-.59.1,0,.2,0,.3,0,.1,0,.2.01.32.03l.48-2.48c-.93,0-1.73.15-2.39.45Z"/>
          <path class="cls-2" d="M402.38,84.36c-.29-.26-.67-.39-1.14-.39-.53,0-.95.15-1.28.46-.33.3-.49.69-.49,1.14,0,.39.14.72.43.99.29.27.66.4,1.14.4.54,0,.97-.15,1.3-.46.33-.3.49-.7.49-1.19,0-.38-.15-.7-.44-.95Z"/>
          <polygon class="cls-2" points="397.4 97.51 400.07 97.51 401.91 88.25 399.24 88.25 397.4 97.51"/>
          <path class="cls-2" d="M410.79,88.63c-.69-.34-1.52-.52-2.47-.52-1.08,0-2.04.24-2.88.71-.84.47-1.51,1.11-1.99,1.92-.48.81-.72,1.73-.72,2.76,0,.84.19,1.57.58,2.18.38.62.93,1.1,1.63,1.44.7.34,1.52.52,2.46.52,1.09,0,2.05-.23,2.89-.7.84-.47,1.5-1.11,1.98-1.93.48-.81.72-1.73.72-2.75,0-.85-.19-1.58-.58-2.19-.38-.61-.92-1.09-1.62-1.44ZM409.92,93.98c-.23.46-.55.82-.95,1.07-.41.26-.87.39-1.4.39-.68,0-1.2-.19-1.57-.56s-.55-.87-.55-1.51.12-1.14.35-1.6.56-.82.96-1.08c.41-.26.87-.39,1.4-.39.67,0,1.18.19,1.55.57s.55.88.55,1.5-.11,1.14-.34,1.6Z"/>
          <path class="cls-2" d="M417.97,89.36l.23-1.11h-2.55l-1.84,9.25h2.68l.89-4.47c.17-.87.51-1.5,1.01-1.89.5-.39,1.14-.59,1.93-.59.1,0,.2,0,.3,0,.1,0,.2.01.32.03l.48-2.48c-.93,0-1.73.15-2.39.45-.4.18-.76.46-1.07.8Z"/>
          <path class="cls-2" d="M434.41,89.48c-.28-.43-.65-.77-1.12-.99-.53-.25-1.15-.38-1.87-.38s-1.38.14-2,.4c-.62.27-1.16.65-1.63,1.13-.47.48-.83,1.05-1.09,1.7-.26.65-.39,1.37-.39,2.15,0,.87.18,1.62.55,2.24.37.62.85,1.09,1.46,1.42.61.33,1.27.49,1.98.49.75,0,1.41-.15,1.99-.46.31-.17.59-.37.86-.61l-.19.94h2.55l2.55-12.76h-2.68l-.95,4.74ZM432.53,95.04c-.41.26-.87.39-1.4.39-.66,0-1.18-.18-1.56-.55s-.56-.87-.56-1.5.12-1.14.35-1.59c.23-.45.56-.81.97-1.07.41-.26.88-.39,1.39-.39.66,0,1.18.18,1.56.55.37.37.56.87.56,1.5s-.12,1.14-.35,1.59c-.24.45-.56.81-.96,1.07Z"/>
          <path class="cls-2" d="M445.97,88.62c-.65-.34-1.43-.51-2.34-.51-1.07,0-2.01.24-2.83.71-.82.47-1.46,1.11-1.93,1.92-.46.81-.7,1.73-.7,2.76,0,.84.19,1.57.59,2.18.39.62.94,1.1,1.64,1.44.7.34,1.54.52,2.5.52.7,0,1.38-.1,2.06-.3.67-.2,1.27-.51,1.81-.94l-1.12-1.77c-.31.28-.68.49-1.12.64-.44.15-.89.22-1.36.22-.8,0-1.4-.17-1.8-.52-.35-.31-.54-.77-.58-1.37h7.07c.05-.22.08-.45.11-.69.03-.24.04-.48.04-.72,0-.84-.18-1.56-.54-2.16-.36-.6-.87-1.07-1.52-1.41ZM442.02,90.55c.41-.28.9-.42,1.49-.42.47,0,.87.1,1.2.28s.57.46.72.81c.1.23.12.51.12.82h-4.55c.03-.11.05-.22.1-.33.21-.49.51-.88.92-1.16Z"/>
          <path class="cls-2" d="M462.14,95c-.54.22-1.12.33-1.74.33-.71,0-1.32-.13-1.82-.38-.51-.25-.89-.6-1.15-1.06-.26-.45-.4-.98-.4-1.59,0-.64.1-1.25.31-1.82.21-.57.51-1.07.9-1.5.4-.43.87-.76,1.42-1,.55-.24,1.16-.35,1.84-.35s1.24.12,1.72.36c.48.24.88.59,1.19,1.05l2.01-1.65c-.42-.69-1.05-1.22-1.87-1.58-.83-.37-1.78-.55-2.86-.55s-2.14.18-3.05.55c-.91.37-1.7.87-2.36,1.52-.66.65-1.17,1.41-1.53,2.3s-.54,1.83-.54,2.85.24,1.94.72,2.73c.48.79,1.17,1.4,2.06,1.84.89.44,1.95.66,3.17.66,1.03,0,1.98-.16,2.85-.49.87-.33,1.61-.86,2.24-1.59l-1.65-1.69c-.44.48-.92.83-1.46,1.06Z"/>
          <path class="cls-2" d="M475.48,88.6c-.55-.33-1.22-.49-2-.49-.73,0-1.43.16-2.09.47-.28.13-.53.31-.77.5l.87-4.35h-2.68l-2.55,12.76h2.68l.93-4.7c.17-.8.48-1.4.94-1.79.45-.39,1.02-.59,1.69-.59s1.1.18,1.35.55c.25.37.3.89.16,1.57l-1,4.95h2.68l1.03-5.13c.18-.93.16-1.71-.08-2.34s-.63-1.11-1.18-1.44Z"/>
          <path class="cls-2" d="M486.48,89.5c-.26-.41-.6-.73-1.03-.96-.55-.29-1.21-.43-1.98-.43-.71,0-1.38.14-2,.4-.62.27-1.16.65-1.63,1.13-.47.48-.83,1.05-1.09,1.7-.26.65-.39,1.37-.39,2.15,0,.87.18,1.62.55,2.24s.85,1.09,1.46,1.42c.61.33,1.27.49,1.98.49.92,0,1.71-.22,2.36-.67.17-.12.33-.24.48-.38l-.18.92h2.55l1.84-9.25h-2.68l-.25,1.25ZM484.59,95.04c-.41.26-.87.39-1.4.39-.67,0-1.18-.18-1.56-.55-.37-.37-.56-.87-.56-1.5s.12-1.14.35-1.59c.24-.45.56-.81.97-1.07.41-.26.88-.39,1.39-.39.67,0,1.18.18,1.56.55.37.37.56.87.56,1.5s-.12,1.14-.35,1.59c-.24.45-.56.81-.96,1.07Z"/>
          <path class="cls-2" d="M505.48,88.6c-.54-.33-1.2-.49-1.98-.49-.92,0-1.73.21-2.45.64-.4.24-.76.54-1.08.91-.05-.1-.09-.22-.16-.31-.29-.41-.67-.71-1.13-.92-.46-.21-.98-.31-1.55-.31-.71,0-1.38.16-2.01.48-.32.16-.62.38-.89.63l.2-.97h-2.55l-1.84,9.25h2.68l.93-4.71c.17-.83.46-1.42.88-1.8.41-.37.93-.56,1.57-.56.6,0,1.01.18,1.25.55.23.37.28.89.15,1.58l-.98,4.94h2.68l.95-4.75c.16-.8.45-1.39.86-1.76.41-.37.93-.56,1.57-.56.6,0,1.01.18,1.26.55.24.37.29.89.14,1.58l-.98,4.94h2.68l1.01-5.13c.19-.93.18-1.71-.05-2.34-.23-.63-.61-1.11-1.15-1.44Z"/>
          <path class="cls-2" d="M517.12,88.6c-.61-.33-1.27-.49-2-.49-.91,0-1.69.22-2.36.67-.17.11-.33.24-.48.38l.19-.91h-2.55l-2.51,12.59h2.68l.92-4.58c.26.41.61.73,1.04.95.56.29,1.21.43,1.95.43s1.39-.13,2.01-.4c.62-.27,1.16-.65,1.63-1.13.46-.48.83-1.05,1.09-1.71.26-.66.4-1.37.4-2.14,0-.88-.18-1.63-.55-2.24-.37-.61-.85-1.08-1.46-1.41ZM516.06,93.97c-.24.45-.55.81-.95,1.07-.4.26-.87.39-1.41.39-.66,0-1.18-.18-1.55-.55s-.55-.87-.55-1.5.11-1.14.34-1.59c.23-.45.55-.81.96-1.07.41-.26.88-.39,1.39-.39.68,0,1.2.18,1.57.55s.55.87.55,1.5-.12,1.14-.35,1.59Z"/>
          <path class="cls-2" d="M528.19,88.63c-.69-.34-1.52-.52-2.47-.52-1.08,0-2.04.24-2.88.71-.84.47-1.51,1.11-1.99,1.92-.48.81-.72,1.73-.72,2.76,0,.84.19,1.57.58,2.18.38.62.93,1.1,1.63,1.44.7.34,1.52.52,2.46.52,1.09,0,2.05-.23,2.89-.7.84-.47,1.5-1.11,1.98-1.93.48-.81.72-1.73.72-2.75,0-.85-.19-1.58-.58-2.19-.38-.61-.92-1.09-1.62-1.44ZM527.32,93.98c-.23.46-.55.82-.95,1.07-.41.26-.87.39-1.4.39-.68,0-1.2-.19-1.57-.56s-.55-.87-.55-1.51.12-1.14.35-1.6c.24-.46.56-.82.96-1.08.41-.26.87-.39,1.4-.39.67,0,1.18.19,1.55.57.37.38.55.88.55,1.5s-.11,1.14-.34,1.6Z"/>
          <path class="cls-2" d="M536.45,86.21h-2.68l-.45,2.25h-1.43l-.41,2.06h1.43l-.74,3.73c-.14.7-.11,1.3.09,1.81.2.51.54.9,1.01,1.17.47.27,1.04.4,1.7.4.4,0,.8-.04,1.2-.12.4-.08.77-.22,1.1-.43l-.4-1.91c-.16.1-.34.18-.52.24-.19.06-.38.09-.56.09-.4,0-.68-.11-.83-.34-.15-.23-.19-.54-.12-.93l.74-3.71h2.3l.41-2.06h-2.31l.45-2.25Z"/>
          <polygon class="cls-2" points="548.75 84.59 545.79 84.59 543.21 87.07 545.38 87.07 548.75 84.59"/>
          <path class="cls-2" d="M546.63,88.63c-.69-.34-1.52-.52-2.47-.52-1.08,0-2.04.24-2.88.71-.84.47-1.51,1.11-1.99,1.92-.48.81-.72,1.73-.72,2.76,0,.84.19,1.57.58,2.18.38.62.93,1.1,1.63,1.44.7.34,1.52.52,2.46.52,1.09,0,2.05-.23,2.89-.7.84-.47,1.5-1.11,1.98-1.93.48-.81.72-1.73.72-2.75,0-.85-.19-1.58-.58-2.19-.38-.61-.92-1.09-1.62-1.44ZM545.76,93.98c-.23.46-.55.82-.95,1.07-.41.26-.87.39-1.4.39-.68,0-1.2-.19-1.57-.56s-.55-.87-.55-1.51.12-1.14.35-1.6c.24-.46.56-.82.96-1.08.41-.26.87-.39,1.4-.39.67,0,1.18.19,1.55.57s.55.88.55,1.5-.11,1.14-.34,1.6Z"/>
          <path class="cls-2" d="M560.05,90.04c-.23-.63-.62-1.11-1.17-1.44-.55-.33-1.22-.49-2.01-.49-.73,0-1.43.16-2.09.47-.35.17-.66.38-.95.65l.2-.98h-2.55l-1.84,9.25h2.68l.93-4.7c.17-.8.48-1.4.94-1.79.45-.39,1.02-.59,1.69-.59s1.1.18,1.35.55c.25.37.3.89.16,1.57l-1,4.95h2.68l1.03-5.13c.18-.93.16-1.71-.07-2.34Z"/>
        </g>
      </g>
    </g>
  </g>
</svg>